<svg xmlns="http://www.w3.org/2000/svg" version="1.1" xmlns:xlink="http://www.w3.org/1999/xlink" xmlns:svgjs="http://svgjs.dev/svgjs" width="128" height="128" viewBox="0 0 128 128"><g transform="matrix(0.8046875,0,0,0.8046875,12.760752631578946,26.90403762755102)"><svg viewBox="0 0 95 69" data-background-color="#c8c8c8" preserveAspectRatio="xMidYMid meet" height="92" width="128" xmlns="http://www.w3.org/2000/svg" xmlns:xlink="http://www.w3.org/1999/xlink"><g id="tight-bounds" transform="matrix(1,0,0,1,-0.24049999999999727,0.07487755102040694)"><svg viewBox="0 0 95.481 68.85024489795917" height="68.85024489795917" width="95.481"><g><svg viewBox="0 0 95.481 68.85024489795917" height="68.85024489795917" width="95.481"><g><svg viewBox="0 0 95.481 68.85024489795917" height="68.85024489795917" width="95.481"><g id="textblocktransform"><svg viewBox="0 0 95.481 68.85024489795917" height="68.85024489795917" width="95.481" id="textblock"><g><svg viewBox="0 0 95.481 68.85024489795917" height="68.85024489795917" width="95.481"><g><svg viewBox="0 0 95.481 68.85024489795917" height="68.85024489795917" width="95.481"><g><svg xmlns="http://www.w3.org/2000/svg" xmlns:xlink="http://www.w3.org/1999/xlink" version="1.1" x="0" y="0" viewBox="15.7 21.5 58.8 42.4" enable-background="new 0 0 90 90" xml:space="preserve" height="68.85024489795917" width="95.481" class="icon-icon-0" data-fill-palette-color="accent" id="icon-0"><g fill="#000000" data-fill-palette-color="accent"><path fill="#000000" d="M60.3 37.1c-1.3 0.1-2.5 0.3-3.7 0.7-0.6 0.2-1.2 0.3-1.7 0.3h-7.1c1.8-2.1 2.7-3.9 2.6-5.6-0.1-2.3-1.9-3.9-3.5-5.3-1.2-1-2.3-2-2.4-3.1 0-0.6 0.3-1.3 1.1-2L45 21.5c-1 1-1.4 1.9-1.4 2.8 0.1 1.5 1.3 2.6 2.7 3.8 1.5 1.3 3.1 2.7 3.1 4.6 0.1 1.6-0.9 3.4-3 5.6H35.1c-0.5 0-1.1-0.1-1.7-0.3-1.2-0.4-2.5-0.7-3.7-0.7-7.3-0.4-13.9 6-14 13.2 0 3.6 1.3 6.9 3.9 9.5 2.5 2.5 5.9 3.9 9.5 3.9 2.8 0 5.4-0.8 7.7-2.4 0.7-0.5 1.7-0.8 2.6-0.8h11.4c1 0 1.9 0.3 2.6 0.8 2.3 1.6 4.9 2.4 7.7 2.4 3.6 0 6.9-1.4 9.5-3.9 2.5-2.5 3.9-5.9 3.9-9.5C74.2 43.1 67.6 36.7 60.3 37.1zM69.7 59.1c-2.3 2.3-5.4 3.6-8.7 3.6-2.5 0-5-0.8-7.1-2.2-0.9-0.6-2-1-3.2-1H39.3c-1.2 0-2.3 0.3-3.2 1-2.1 1.5-4.5 2.2-7.1 2.2-3.3 0-6.4-1.3-8.7-3.6-2.3-2.3-3.6-5.5-3.6-8.8 0.1-6.7 6.2-12.5 12.9-12.2 1.2 0.1 2.3 0.3 3.5 0.7 0.7 0.3 1.4 0.4 2 0.4h19.7c0.6 0 1.3-0.1 2-0.4 1.1-0.4 2.3-0.6 3.5-0.7 6.8-0.3 12.9 5.5 12.9 12.2C73.3 53.6 72 56.7 69.7 59.1z" data-fill-palette-color="accent"></path><path fill="#000000" d="M63.4 48.6c1.2 0 2.2-1 2.2-2.2s-1-2.2-2.2-2.2-2.2 1-2.2 2.2S62.2 48.6 63.4 48.6zM63.4 45.2c0.7 0 1.2 0.6 1.2 1.2 0 0.7-0.6 1.2-1.2 1.2s-1.2-0.6-1.2-1.2C62.2 45.7 62.7 45.2 63.4 45.2z" data-fill-palette-color="accent"></path><path fill="#000000" d="M63.4 52.2c-1.2 0-2.2 1-2.2 2.2 0 1.2 1 2.2 2.2 2.2s2.2-1 2.2-2.2C65.6 53.2 64.6 52.2 63.4 52.2zM63.4 55.6c-0.7 0-1.2-0.6-1.2-1.2 0-0.7 0.6-1.2 1.2-1.2s1.2 0.6 1.2 1.2C64.6 55.1 64.1 55.6 63.4 55.6z" data-fill-palette-color="accent"></path><path fill="#000000" d="M67.4 48.2c-1.2 0-2.2 1-2.2 2.2 0 1.2 1 2.2 2.2 2.2s2.2-1 2.2-2.2C69.6 49.2 68.6 48.2 67.4 48.2zM67.4 51.6c-0.7 0-1.2-0.6-1.2-1.2 0-0.7 0.6-1.2 1.2-1.2s1.2 0.6 1.2 1.2C68.6 51.1 68.1 51.6 67.4 51.6z" data-fill-palette-color="accent"></path><path fill="#000000" d="M59.4 48.2c-1.2 0-2.2 1-2.2 2.2 0 1.2 1 2.2 2.2 2.2 1.2 0 2.2-1 2.2-2.2C61.7 49.2 60.7 48.2 59.4 48.2zM59.4 51.6c-0.7 0-1.2-0.6-1.2-1.2 0-0.7 0.6-1.2 1.2-1.2 0.7 0 1.2 0.6 1.2 1.2C60.7 51.1 60.1 51.6 59.4 51.6z" data-fill-palette-color="accent"></path><path fill="#000000" d="M32.7 48.1h-2.3c-0.2 0-0.3-0.1-0.3-0.3v-2.3c0-0.7-0.6-1.3-1.3-1.3h-2c-0.7 0-1.3 0.6-1.3 1.3v2.3c0 0.2-0.1 0.3-0.3 0.3h-2.3c-0.7 0-1.3 0.6-1.3 1.3v2c0 0.7 0.6 1.3 1.3 1.3h2.3c0.2 0 0.3 0.1 0.3 0.3v2.3c0 0.7 0.6 1.3 1.3 1.3h2c0.7 0 1.3-0.6 1.3-1.3V53c0-0.2 0.1-0.3 0.3-0.3h2.3c0.7 0 1.3-0.6 1.3-1.3v-2C34 48.7 33.5 48.1 32.7 48.1zM33 51.4c0 0.2-0.1 0.3-0.3 0.3h-2.3c-0.7 0-1.3 0.6-1.3 1.3v2.3c0 0.2-0.1 0.3-0.3 0.3h-2c-0.2 0-0.3-0.1-0.3-0.3V53c0-0.7-0.6-1.3-1.3-1.3h-2.3c-0.2 0-0.3-0.1-0.3-0.3v-2c0-0.2 0.1-0.3 0.3-0.3h2.3c0.7 0 1.3-0.6 1.3-1.3v-2.3c0-0.2 0.1-0.3 0.3-0.3h2c0.2 0 0.3 0.1 0.3 0.3v2.3c0 0.7 0.6 1.3 1.3 1.3h2.3c0.2 0 0.3 0.1 0.3 0.3V51.4z" data-fill-palette-color="accent"></path><path fill="#000000" d="M47.9 50.7l-1.8 1.8c-0.6 0.6-0.6 1.5 0 2.1 0.3 0.3 0.6 0.4 1 0.4s0.8-0.2 1-0.4l1.8-1.8c0.6-0.6 0.6-1.5 0-2.1C49.4 50.2 48.5 50.2 47.9 50.7zM49.3 52.1l-1.8 1.8c-0.2 0.2-0.5 0.2-0.7 0-0.2-0.2-0.2-0.5 0-0.7l1.8-1.8c0.1-0.1 0.2-0.1 0.3-0.1 0.1 0 0.2 0 0.3 0.1C49.4 51.6 49.4 51.9 49.3 52.1z" data-fill-palette-color="accent"></path><path fill="#000000" d="M41.8 50.7L40 52.5c-0.6 0.6-0.6 1.5 0 2.1 0.3 0.3 0.6 0.4 1 0.4 0.4 0 0.8-0.2 1-0.4l1.8-1.8c0.3-0.3 0.4-0.6 0.4-1s-0.2-0.8-0.4-1C43.3 50.2 42.4 50.2 41.8 50.7zM43.2 52.1l-1.8 1.8c-0.2 0.2-0.5 0.2-0.7 0-0.2-0.2-0.2-0.5 0-0.7l1.8-1.8c0.1-0.1 0.2-0.1 0.3-0.1s0.2 0 0.3 0.1c0.1 0.1 0.1 0.2 0.1 0.3S43.3 52 43.2 52.1z" data-fill-palette-color="accent"></path></g></svg></g></svg></g></svg></g></svg></g></svg></g></svg></g><defs></defs></svg><rect width="95.481" height="68.85024489795917" fill="none" stroke="none" visibility="hidden"></rect></g></svg></g></svg>